<?xml version="1.0"?>
<svg xmlns="http://www.w3.org/2000/svg" xmlns:xlink="http://www.w3.org/1999/xlink" xmlns:svgjs="http://svgjs.com/svgjs" version="1.1" width="512" height="512" x="0" y="0" viewBox="0 0 45.943 45.943" style="enable-background:new 0 0 512 512" xml:space="preserve" class=""><g>
<g xmlns="http://www.w3.org/2000/svg">
	<path d="M37.35,0H8.502C7.311,0,6.392,0.958,6.392,2.149v41.628c0,1.192,0.919,2.166,2.111,2.166h11.473V34.059   c0-0.363,0.268-0.699,0.629-0.699h4.641c0.364,0,0.623,0.336,0.623,0.699v11.885H37.35c1.19,0,2.202-0.974,2.202-2.166V2.15   C39.552,0.958,38.54,0,37.35,0z M17.479,39.095c0,0.362-0.294,0.656-0.656,0.656h-4.681c-0.362,0-0.655-0.294-0.655-0.656v-4.681   c0-0.362,0.293-0.656,0.655-0.656h4.681c0.362,0,0.656,0.293,0.656,0.656V39.095z M17.479,30.605c0,0.362-0.294,0.656-0.656,0.656   h-4.681c-0.362,0-0.655-0.293-0.655-0.656v-4.681c0-0.362,0.293-0.655,0.655-0.655h4.681c0.362,0,0.656,0.293,0.656,0.655V30.605z    M17.479,22.016c0,0.362-0.294,0.656-0.656,0.656h-4.681c-0.362,0-0.655-0.294-0.655-0.656v-4.68c0-0.363,0.293-0.656,0.655-0.656   h4.681c0.362,0,0.656,0.293,0.656,0.656V22.016z M17.479,13.527c0,0.362-0.294,0.656-0.656,0.656h-4.681   c-0.362,0-0.655-0.293-0.655-0.656V8.846c0-0.362,0.293-0.656,0.655-0.656h4.681c0.362,0,0.656,0.293,0.656,0.656V13.527z    M25.968,30.605c0,0.362-0.295,0.656-0.655,0.656H20.63c-0.361,0-0.655-0.293-0.655-0.656v-4.681c0-0.362,0.294-0.655,0.655-0.655   h4.682c0.36,0,0.655,0.293,0.655,0.655V30.605z M25.968,22.016c0,0.362-0.295,0.656-0.655,0.656H20.63   c-0.361,0-0.655-0.294-0.655-0.656v-4.68c0-0.363,0.294-0.656,0.655-0.656h4.682c0.36,0,0.655,0.293,0.655,0.656V22.016z    M25.968,13.527c0,0.362-0.295,0.656-0.655,0.656H20.63c-0.361,0-0.655-0.293-0.655-0.656V8.846c0-0.362,0.294-0.656,0.655-0.656   h4.682c0.36,0,0.655,0.293,0.655,0.656V13.527z M34.456,39.095c0,0.362-0.293,0.656-0.654,0.656H29.12   c-0.361,0-0.656-0.294-0.656-0.656v-4.681c0-0.362,0.295-0.656,0.656-0.656h4.682c0.361,0,0.654,0.293,0.654,0.656V39.095z    M34.456,30.605c0,0.362-0.293,0.656-0.654,0.656H29.12c-0.361,0-0.656-0.293-0.656-0.656v-4.681c0-0.362,0.295-0.655,0.656-0.655   h4.682c0.361,0,0.654,0.293,0.654,0.655V30.605z M34.456,22.016c0,0.362-0.293,0.656-0.654,0.656H29.12   c-0.361,0-0.656-0.294-0.656-0.656v-4.68c0-0.363,0.295-0.656,0.656-0.656h4.682c0.361,0,0.654,0.293,0.654,0.656V22.016z    M34.456,13.527c0,0.362-0.293,0.656-0.654,0.656H29.12c-0.361,0-0.656-0.293-0.656-0.656V8.846c0-0.362,0.295-0.656,0.656-0.656   h4.682c0.361,0,0.654,0.293,0.654,0.656V13.527z" fill="#f9a825" data-original="#000000" style="" class=""/>
</g>
<g xmlns="http://www.w3.org/2000/svg">
</g>
<g xmlns="http://www.w3.org/2000/svg">
</g>
<g xmlns="http://www.w3.org/2000/svg">
</g>
<g xmlns="http://www.w3.org/2000/svg">
</g>
<g xmlns="http://www.w3.org/2000/svg">
</g>
<g xmlns="http://www.w3.org/2000/svg">
</g>
<g xmlns="http://www.w3.org/2000/svg">
</g>
<g xmlns="http://www.w3.org/2000/svg">
</g>
<g xmlns="http://www.w3.org/2000/svg">
</g>
<g xmlns="http://www.w3.org/2000/svg">
</g>
<g xmlns="http://www.w3.org/2000/svg">
</g>
<g xmlns="http://www.w3.org/2000/svg">
</g>
<g xmlns="http://www.w3.org/2000/svg">
</g>
<g xmlns="http://www.w3.org/2000/svg">
</g>
<g xmlns="http://www.w3.org/2000/svg">
</g>
<script/></g></svg>
